inDegrees=no
num_controls=7
num_derivatives=13
num_iterations=54
num_multipliers=7
num_parameters=0
num_slacks=7
num_states=26
objective=0.427308
objective_accelerations=0.057158
objective_balance=0.001194
objective_effort=0.014815
objective_height=0.348162
objective_ligament=0.005979
solver_duration=752.604045
status=Solve_Succeeded
success=true
DataType=double
version=3
OpenSimVersion=4.5
endheader
time	/jointset/ground_pelvis/pelvis_tilt/value	/jointset/ground_pelvis/pelvis_tx/value	/jointset/ground_pelvis/pelvis_ty/value	/jointset/hip_l/hip_flexion_l/value	/jointset/hip_l/hip_adduction_l/value	/jointset/hip_l/hip_rotation_l/value	/jointset/back/lumbar_extension/value	/jointset/patellofemoral_l/patellar_flexion_l/value	/jointset/knee_l/knee_flexion_l/value	/jointset/knee_l/knee_adduction_l/value	/jointset/knee_l/knee_rotation_l/value	/jointset/ankle_l/ankle_angle_l/value	/jointset/subtalar_l/subtalar_angle_l/value	/jointset/ground_pelvis/pelvis_tilt/speed	/jointset/ground_pelvis/pelvis_tx/speed	/jointset/ground_pelvis/pelvis_ty/speed	/jointset/hip_l/hip_flexion_l/speed	/jointset/hip_l/hip_adduction_l/speed	/jointset/hip_l/hip_rotation_l/speed	/jointset/back/lumbar_extension/speed	/jointset/patellofemoral_l/patellar_flexion_l/speed	/jointset/knee_l/knee_flexion_l/speed	/jointset/knee_l/knee_adduction_l/speed	/jointset/knee_l/knee_rotation_l/speed	/jointset/ankle_l/ankle_angle_l/speed	/jointset/subtalar_l/subtalar_angle_l/speed	/forceset/tau_hip_flexion_l	/forceset/tau_hip_adduction_l	/forceset/tau_hip_rotation_l	/forceset/tau_knee_flexion_l	/forceset/tau_ankle_angle_l	/forceset/tau_subtalar_angle_l	/forceset/tau_lumbar_extension	lambda_cid13_p0	lambda_cid13_p1	lambda_cid13_p2	lambda_cid13_p3	lambda_cid13_p4	lambda_cid13_p5	lambda_cid14_p0	/jointset/ground_pelvis/pelvis_tilt/accel	/jointset/ground_pelvis/pelvis_tx/accel	/jointset/ground_pelvis/pelvis_ty/accel	/jointset/hip_l/hip_flexion_l/accel	/jointset/hip_l/hip_adduction_l/accel	/jointset/hip_l/hip_rotation_l/accel	/jointset/back/lumbar_extension/accel	/jointset/patellofemoral_l/patellar_flexion_l/accel	/jointset/knee_l/knee_flexion_l/accel	/jointset/knee_l/knee_adduction_l/accel	/jointset/knee_l/knee_rotation_l/accel	/jointset/ankle_l/ankle_angle_l/accel	/jointset/subtalar_l/subtalar_angle_l/accel	gamma_cid13_p0	gamma_cid13_p1	gamma_cid13_p2	gamma_cid13_p3	gamma_cid13_p4	gamma_cid13_p5	gamma_cid14_p0
0	0.04791760312588792	0.1081294157623359	0.9028630131288159	0.1266922784136757	-0.3700927456188674	-0.2256669081624948	-0.2144969558742783	0.2051545070142219	0.2051545070141877	-0.1744473113334255	-0.1608300356699228	0.09024313228550125	0.07897780735511101	0	0	0	0	0	0	0	0	0	0	0	0	0	0.1115507920001646	-0.04532930880919753	-0.009410615982829053	-0.2433966664992799	0.1813731847858613	-0.09759995988848399	-0.04578371745152794	26.84786216766537	38.52124131474118	-7.375486481073077	-18.05651520384988	-439.2844031996889	-38.99152755076011	-26.2699011758541	-3.010398888014535	-1.081057704300385	-0.8128642393295228	11.09517554163992	-0.02056747149258795	3.067201820564045	-3.835624169494915	10.62501100622334	10.62501100622236	2.571784504693271	-1.003153907541976	3.566379279272547	1.01044938803099	2.09221036306183e-08	5.766344956600552e-07	-3.042576638154124e-07	4.446984919983155e-08	1.196784864618905e-07	4.497599571860831e-07	8.917888286436692e-08
0.01	0.04777369911938815	0.1080759214590819	0.9028235664281904	0.1272311804359453	-0.3700935087921791	-0.2255050539219856	-0.2146901934338167	0.2056707910741994	0.2056707910741679	-0.1743225587014943	-0.160866510844377	0.09041631832466888	0.07902697115975327	-0.02875290393780013	-0.01067006642625414	-0.007871513751305542	0.1073151136161009	-0.0002247008821838045	0.03241720381437864	-0.03813306866476	0.102582860135397	0.1025828601353979	0.02461319824643518	-0.007028676557551018	0.03433420672971697	0.009664902899908416	0.1071539846500127	-0.05392336902584802	-0.008258020904974068	-0.23710593161944	0.1693055832173072	-0.08648916858702496	-0.04233970528650214	23.55890125812603	33.88280129288023	-6.191777235764367	-16.00174977403581	-440.1215175497247	-48.14994507139552	-26.26992629466396	-2.803551886517955	-1.055653085410109	-0.7715970512114707	10.47988615595027	-0.03426424454314177	3.335995531454361	-3.724981727699209	9.973812901043733	9.973812901044193	2.355548234458878	-0.51283330831025	3.321504461178905	0.9192775471295893	4.58648727154817e-09	8.420614275804762e-07	-1.78496735510261e-07	8.424524059673685e-08	-1.259657998673216e-07	3.594638186885348e-07	1.167621991827344e-07
0.02	0.04734310292550972	0.1079165920968389	0.9027059441684175	0.128829274971202	-0.3700986875439374	-0.2250176244694553	-0.2152493283825678	0.2071926816124262	0.2071926816124274	-0.1739617819373286	-0.160965294539898	0.09092375904936127	0.07916773735462677	-0.05733843746987319	-0.02116701179778799	-0.01563511182943133	0.2118385026063098	-0.0008831156829246658	0.0651150424119593	-0.07317947783877299	0.2011212956246633	0.201121295624666	0.04720482648652224	-0.01246170425307188	0.0668509371137531	0.01832047804618559	0.102757177299979	-0.06251742924213823	-0.007105425828403498	-0.2308151967388725	0.1572379816491253	-0.07537837728504974	-0.03889569312181997	20.31678697835501	29.25070697585062	-5.025700417624401	-13.99695978559116	-440.1127028500552	-57.12249084367207	-26.26954137734096	-2.976924806868662	-1.046433493356785	-0.7912811046935512	10.53683061646165	-0.1073102552039417	3.12332877720443	-3.218292271345333	9.816126076997369	9.81612607699657	2.16747050342379	-0.6840241351360319	3.202884010135923	0.8085838373046638	-1.174912908752196e-08	1.107488359500897e-06	-5.273580720510958e-08	1.240206319936422e-07	-3.716100861965337e-07	2.691676801909865e-07	1.443455155011019e-07
0.03	0.04662809326228991	0.1076529515284552	0.9025109984555156	0.1314600717563407	-0.3701114129816974	-0.2242056423290789	-0.2161463655240282	0.2096830339284679	0.209683033928401	-0.1733819592858539	-0.1611144528558395	0.0917486776421086	0.07939181434945342	-0.08553084380699606	-0.03155120984615821	-0.02335098280103652	0.3139143202314311	-0.001615448329770488	0.0970779784250986	-0.1060460498217425	0.2965293017073617	0.2965293017073645	0.06871719189528583	-0.01735500603057455	0.09794879878562647	0.02649683271728986	0.09933609839939161	-0.05755414943223817	-0.006255939275004471	-0.2265501042620252	0.1515580324415487	-0.07718461688409907	-0.03637718676486837	18.37868450285017	30.24496386000949	-5.036244238669052	-12.54555281690807	-440.0450967449477	-54.35086143139421	-26.26814908112985	-2.720491988279489	-1.032904192049141	-0.7613582153769585	9.981978999670837	-0.04937653404682944	3.202305973592325	-3.293554566540906	9.340129014514003	9.340129014514632	2.136926857060203	-0.3897741077473707	3.035674590201461	0.8222792121981586	-1.172158603350406e-08	1.249605491447921e-06	-1.135847963837578e-07	1.451810629465759e-07	-4.683154511044029e-07	3.476534304913426e-07	1.717274259991946e-07
0.04	0.04563514084745336	0.1072857707332925	0.9022389704085043	0.1350994310505496	-0.3701300980988456	-0.223080124836508	-0.2173666113662681	0.2131148645333203	0.2131148645333235	-0.1725882515207173	-0.1613121023715409	0.09287906232048591	0.07969767847702848	-0.1129269877898675	-0.04187505715359462	-0.03105157865134776	0.4135510044219289	-0.002075051561480555	0.1278221128471655	-0.1378212179953863	0.3894169534143999	0.3894169534144084	0.08998184920233283	-0.02215994415567734	0.1279441542370403	0.03467790459577977	0.09591501949882392	-0.05259086962248094	-0.00540645272024315	-0.2222850117854378	0.1458780832338959	-0.07899085648334302	-0.03385868040782779	16.48285898283561	31.24851484857062	-5.067343835662485	-11.13344391131828	-439.2007400922997	-51.39903434168881	-26.26499341336358	-2.817672336017977	-1.034363345170463	-0.7882260804347341	10.0490039295371	-0.05276437217669153	2.879568458989927	-3.000011509480055	9.312055201865501	9.3120552018658	2.117928883080702	-0.6663514046561441	2.982382766043591	0.8095272787817709	-1.13566582493194e-08	1.3891801532924e-06	-1.782814127270206e-07	1.659576802821082e-07	-5.619499104159557e-07	4.296192197359854e-07	1.991051837999619e-07
0.05	0.04437157732248975	0.1068160116972343	0.9018897104198689	0.1397230722249728	-0.3701527677620833	-0.2216536208488282	-0.2188975667697196	0.2174630576488695	0.2174630576488315	-0.1715848282720258	-0.1615578838997127	0.09430408101560976	0.08008464985491405	-0.1396578658111985	-0.05202872420041952	-0.03881837220105112	0.5106804709180616	-0.002483728107085283	0.1573879226975695	-0.1680901706476808	0.4797271988296101	0.4797271988296234	0.1104722060716401	-0.02686386692082487	0.1568751797279888	0.04264145370259039	0.09216717545135981	-0.05088330066695446	-0.00445145639959944	-0.2186953275984865	0.1404355526705998	-0.07774841015102757	-0.03103223665646389	14.84215756463512	30.88861806778209	-4.887086374290107	-10.19411616477174	-438.5089356368609	-51.27940547413755	-26.25928920406488	-2.581602166791326	-0.9986311475002709	-0.7737121076009215	9.470409455530733	-0.03882371492527711	2.981542357011659	-2.998383335419172	8.816298540450783	8.81629854045122	1.980216491884277	-0.3525993303734373	2.820844380105634	0.7783336935236559	-1.759846856873024e-08	1.381660173204673e-06	-1.600688788470798e-07	1.734608474015747e-07	-6.431731599874075e-07	4.046231891910347e-07	1.99573991622835e-07
0.06	0.04284454369097274	0.1062461634380945	0.9014622212726655	0.1453031063535154	-0.3701803050746187	-0.2199341677408536	-0.22072282093816	0.2226995110843409	0.2226995110843467	-0.1703833759740556	-0.1618467419792131	0.09601288635353659	0.08054896971724679	-0.1656210090965196	-0.06189290176993908	-0.04669741036487924	0.6048295952493675	-0.003048581419619267	0.186411936905807	-0.1966809709925262	0.5670690174089199	0.5670690174089325	0.1295876590620908	-0.03077525440315442	0.1847014827983483	0.0501476014851196	0.08841933140392307	-0.04917573171140554	-0.003496460078502458	-0.2151056434115278	0.1349930221073447	-0.07650596381868108	-0.02820579290513216	13.23969515448272	30.53561222134778	-4.72344825758544	-9.288132450947209	-437.1206948732361	-50.9970052101987	-26.24986042231793	-2.664125388815644	-0.9764654497097998	-0.8106750032596627	9.452935496571854	-0.08399972556244034	2.771209330556622	-2.66438104799011	8.718369834685594	8.718369834684768	1.842948107309611	-0.5078443480926198	2.76143828192541	0.7180470139254727	-2.411845733460825e-08	1.367946734509274e-06	-1.383654333787936e-07	1.804051324066805e-07	-7.238738323066445e-07	3.751235030759959e-07	1.989097910255861e-07
0.07000000000000001	0.04106101932200134	0.1055789394458448	0.9009551687218554	0.1518115096986274	-0.3702138245295537	-0.2179299925492866	-0.2228254027085499	0.2287961231387114	0.228796123138694	-0.1689963651185047	-0.1621736776124124	0.09799476133466525	0.08108670096003336	-0.1909685588096866	-0.07151926810008073	-0.05474322166758444	0.6964232696644439	-0.003631031248337697	0.2142222369788155	-0.2235950486283712	0.6518150251728922	0.6518150251728604	0.1476917505941459	-0.03457122190348624	0.2114958079153613	0.05738212785699798	0.08447352095912945	-0.0468718139656763	-0.002456098232477031	-0.2115908645695974	0.1293111596973545	-0.07533935796434243	-0.02532179366398917	11.53417170549796	30.2399698684758	-4.576242171856491	-8.232111329473442	-436.0344615285026	-50.55817381007337	-26.23551691341771	-2.452754575374132	-0.9507917734811113	-0.8061982272405087	8.948419384729204	-0.04190320096043217	2.755873774567781	-2.668870952286549	8.286921230703641	8.286921230697521	1.775942270070743	-0.3094272862286165	2.611816100098353	0.7234795024091353	-2.314143078654692e-08	1.2820445204022e-06	-1.848262224227785e-07	1.766699510523738e-07	-7.316416477506135e-07	3.966403430023404e-07	1.951118984278565e-07
